{
    "accessors" : [
        {
            "bufferView" : 0,
            "componentType" : 5125,
            "count" : 164766,
            "max" : [
                103202
            ],
            "min" : [
                0
            ],
            "type" : "SCALAR"
        },
        {
            "bufferView" : 1,
            "componentType" : 5126,
            "count" : 103203,
            "max" : [
                1.4185006618499756,
                0.3892516493797302,
                -0.0029516599606722593
            ],
            "min" : [
                -1.4189635515213013,
                -0.5995420217514038,
                -3.20556902885437
            ],
            "type" : "VEC3"
        },
        {
            "bufferView" : 2,
            "componentType" : 5126,
            "count" : 103203,
            "max" : [
                1.0,
                0.99993896484375,
                0.99993896484375
            ],
            "min" : [
                -0.99993896484375,
                -0.999969482421875,
                -0.99981689453125
            ],
            "type" : "VEC3"
        },
        {
            "bufferView" : 3,
            "componentType" : 5126,
            "count" : 103203,
            "max" : [
                1.0,
                0.9999999403953552,
                1.0,
                1.0
            ],
            "min" : [
                -0.8657702803611755,
                -0.9999999403953552,
                -1.0,
                -1.0
            ],
            "type" : "VEC4"
        },
        {
            "bufferView" : 4,
            "componentType" : 5126,
            "count" : 103203,
            "max" : [
                0.998008131980896,
                0.9981444807490334
            ],
            "min" : [
                0.0018604970537126064,
                0.0019919276237487793
            ],
            "type" : "VEC2"
        }
    ],
    "asset" : {
        "generator" : "Khronos Blender glTF 2.0 exporter",
        "version" : "2.0"
    },
    "bufferViews" : [
        {
            "buffer" : 0,
            "byteLength" : 659064,
            "byteOffset" : 0,
            "target" : 34963
        },
        {
            "buffer" : 0,
            "byteLength" : 1238436,
            "byteOffset" : 659064,
            "target" : 34962
        },
        {
            "buffer" : 0,
            "byteLength" : 1238436,
            "byteOffset" : 1897500,
            "target" : 34962
        },
        {
            "buffer" : 0,
            "byteLength" : 1651248,
            "byteOffset" : 3135936,
            "target" : 34962
        },
        {
            "buffer" : 0,
            "byteLength" : 825624,
            "byteOffset" : 4787184,
            "target" : 34962
        }
    ],
    "buffers" : [
        {
            "byteLength" : 5612808,
            "uri" : "npctest_02.bin"
        }
    ],
    "materials" : [
        {
            "name" : "lambert2",
            "pbrMetallicRoughness" : {
                "baseColorFactor" : [
                    0.2993548437856859,
                    0.2993548437856859,
                    0.2993548437856859,
                    1.0
                ],
                "metallicFactor" : 0.0
            }
        }
    ],
    "meshes" : [
        {
            "name" : "Untitled",
            "primitives" : [
                {
                    "attributes" : {
                        "NORMAL" : 2,
                        "POSITION" : 1,
                        "TANGENT" : 3,
                        "TEXCOORD_0" : 4
                    },
                    "indices" : 0,
                    "material" : 0
                }
            ]
        }
    ],
    "nodes" : [
        {
            "name" : "Camera",
            "rotation" : [
                0.483536034822464,
                0.33687159419059753,
                -0.20870360732078552,
                0.7804827094078064
            ],
            "translation" : [
                7.481131553649902,
                5.34366512298584,
                6.5076398849487305
            ]
        },
        {
            "name" : "Lamp",
            "rotation" : [
                0.16907575726509094,
                0.7558802962303162,
                -0.27217137813568115,
                0.570947527885437
            ],
            "scale" : [
                1.0,
                1.0,
                0.9999999403953552
            ],
            "translation" : [
                4.076245307922363,
                5.903861999511719,
                -1.0054539442062378
            ]
        },
        {
            "children" : [
                8
            ],
            "name" : "npczbrush1_rigtest02:Group57351",
            "rotation" : [
                0.7071068286895752,
                0.0,
                -0.0,
                0.7071067094802856
            ],
            "scale" : [
                0.009999999776482582,
                0.009999999776482582,
                0.009999999776482582
            ],
            "translation" : [
                0.0,
                -4.0978193283081055e-08,
                -1.3387762010097504e-09
            ]
        },
        {
            "children" : [
                9
            ],
            "name" : "npczbrush1_rigtest02:Group57352",
            "rotation" : [
                0.7071068286895752,
                0.0,
                -0.0,
                0.7071067094802856
            ],
            "scale" : [
                0.009999999776482582,
                0.009999999776482582,
                0.009999999776482582
            ],
            "translation" : [
                -7.639755494892597e-11,
                1.6763806343078613e-08,
                1.4551915228366852e-10
            ]
        },
        {
            "children" : [
                10
            ],
            "name" : "npczbrush1_rigtest02:Group57353",
            "rotation" : [
                0.7071068286895752,
                0.0,
                -0.0,
                0.7071067094802856
            ],
            "scale" : [
                0.009999999776482582,
                0.009999999776482582,
                0.009999999776482582
            ],
            "translation" : [
                5.229594535194337e-12,
                -9.872019290924072e-08,
                -5.587935447692871e-09
            ]
        },
        {
            "mesh" : 0,
            "name" : "npczbrush1_rigtest02:Group57354",
            "rotation" : [
                0.7071068286895752,
                0.0,
                -0.0,
                0.7071067094802856
            ],
            "translation" : [
                0.0002291303826496005,
                -0.004210707265883684,
                0.10409373790025711
            ]
        },
        {
            "children" : [
                11
            ],
            "name" : "npczbrush1_rigtest02:Group9155",
            "rotation" : [
                0.7071068286895752,
                0.0,
                -0.0,
                0.7071067094802856
            ],
            "scale" : [
                0.009999999776482582,
                0.009999999776482582,
                0.009999999776482582
            ]
        },
        {
            "children" : [
                12
            ],
            "name" : "npczbrush1_rigtest02:Group9156",
            "rotation" : [
                0.7071068286895752,
                0.0,
                -0.0,
                0.7071067094802856
            ],
            "scale" : [
                0.009999999776482582,
                0.009999999776482582,
                0.009999999776482582
            ]
        },
        {
            "name" : "npczbrush1_rigtest02:transform1"
        },
        {
            "name" : "npczbrush1_rigtest02:transform2"
        },
        {
            "name" : "npczbrush1_rigtest02:transform3"
        },
        {
            "name" : "npczbrush1_rigtest02:transform4"
        },
        {
            "name" : "npczbrush1_rigtest02:transform5"
        }
    ],
    "scene" : 0,
    "scenes" : [
        {
            "name" : "Scene",
            "nodes" : [
                5,
                4,
                3,
                2,
                7,
                6,
                1,
                0
            ]
        }
    ]
}
