{
    "accessors" : [
        {
            "bufferView" : 0,
            "componentType" : 5123,
            "count" : 63330,
            "max" : [
                40510
            ],
            "min" : [
                0
            ],
            "type" : "SCALAR"
        },
        {
            "bufferView" : 1,
            "componentType" : 5126,
            "count" : 40511,
            "max" : [
                1.4185006618499756,
                0.35047081112861633,
                -0.0029516599606722593
            ],
            "min" : [
                -1.4189635515213013,
                -0.5759485363960266,
                -3.1963977813720703
            ],
            "type" : "VEC3"
        },
        {
            "bufferView" : 2,
            "componentType" : 5126,
            "count" : 40511,
            "max" : [
                0.99993896484375,
                0.99993896484375,
                0.99969482421875
            ],
            "min" : [
                -0.99993896484375,
                -0.999542236328125,
                -0.9981383681297302
            ],
            "type" : "VEC3"
        },
        {
            "bufferView" : 3,
            "componentType" : 5123,
            "count" : 18984,
            "max" : [
                11622
            ],
            "min" : [
                0
            ],
            "type" : "SCALAR"
        },
        {
            "bufferView" : 4,
            "componentType" : 5126,
            "count" : 11623,
            "max" : [
                35.78787612915039,
                21.48897361755371,
                -142.99205017089844
            ],
            "min" : [
                -35.82423782348633,
                -30.13750648498535,
                -217.10665893554688
            ],
            "type" : "VEC3"
        },
        {
            "bufferView" : 5,
            "componentType" : 5126,
            "count" : 11623,
            "max" : [
                0.9988402724266052,
                0.999847412109375,
                0.99993896484375
            ],
            "min" : [
                -0.9988402724266052,
                -0.999847412109375,
                -0.999481201171875
            ],
            "type" : "VEC3"
        },
        {
            "bufferView" : 6,
            "componentType" : 5123,
            "count" : 57600,
            "max" : [
                34971
            ],
            "min" : [
                0
            ],
            "type" : "SCALAR"
        },
        {
            "bufferView" : 7,
            "componentType" : 5126,
            "count" : 34972,
            "max" : [
                38.2762565612793,
                38.92516326904297,
                -216.06483459472656
            ],
            "min" : [
                -38.321372985839844,
                7.795454025268555,
                -316.1399230957031
            ],
            "type" : "VEC3"
        },
        {
            "bufferView" : 8,
            "componentType" : 5126,
            "count" : 34972,
            "max" : [
                0.9745170474052429,
                0.999664306640625,
                0.999786376953125
            ],
            "min" : [
                -0.9745170474052429,
                -0.99957275390625,
                -0.99981689453125
            ],
            "type" : "VEC3"
        },
        {
            "bufferView" : 9,
            "componentType" : 5123,
            "count" : 6852,
            "max" : [
                4575
            ],
            "min" : [
                0
            ],
            "type" : "SCALAR"
        },
        {
            "bufferView" : 10,
            "componentType" : 5126,
            "count" : 4576,
            "max" : [
                1.015036940574646,
                0.12491399794816971,
                -2.3214380741119385
            ],
            "min" : [
                -1.0150359869003296,
                -0.5995420217514038,
                -3.20556902885437
            ],
            "type" : "VEC3"
        },
        {
            "bufferView" : 11,
            "componentType" : 5126,
            "count" : 4576,
            "max" : [
                1.0,
                0.9984740614891052,
                0.9958800077438354
            ],
            "min" : [
                -0.9981688857078552,
                -0.9968260526657104,
                -0.9967039823532104
            ],
            "type" : "VEC3"
        },
        {
            "bufferView" : 12,
            "componentType" : 5123,
            "count" : 18000,
            "max" : [
                11373
            ],
            "min" : [
                0
            ],
            "type" : "SCALAR"
        },
        {
            "bufferView" : 13,
            "componentType" : 5126,
            "count" : 11374,
            "max" : [
                44.98810958862305,
                24.231040954589844,
                -53.75181579589844
            ],
            "min" : [
                -45.695133209228516,
                -27.26462173461914,
                -130.98171997070312
            ],
            "type" : "VEC3"
        },
        {
            "bufferView" : 14,
            "componentType" : 5126,
            "count" : 11374,
            "max" : [
                0.999114990234375,
                0.99993896484375,
                0.99981689453125
            ],
            "min" : [
                -0.999298095703125,
                -0.999969482421875,
                -0.99951171875
            ],
            "type" : "VEC3"
        }
    ],
    "asset" : {
        "generator" : "Khronos Blender glTF 2.0 exporter",
        "version" : "2.0"
    },
    "bufferViews" : [
        {
            "buffer" : 0,
            "byteLength" : 126660,
            "byteOffset" : 0,
            "target" : 34963
        },
        {
            "buffer" : 0,
            "byteLength" : 486132,
            "byteOffset" : 126660,
            "target" : 34962
        },
        {
            "buffer" : 0,
            "byteLength" : 486132,
            "byteOffset" : 612792,
            "target" : 34962
        },
        {
            "buffer" : 0,
            "byteLength" : 37968,
            "byteOffset" : 1098924,
            "target" : 34963
        },
        {
            "buffer" : 0,
            "byteLength" : 139476,
            "byteOffset" : 1136892,
            "target" : 34962
        },
        {
            "buffer" : 0,
            "byteLength" : 139476,
            "byteOffset" : 1276368,
            "target" : 34962
        },
        {
            "buffer" : 0,
            "byteLength" : 115200,
            "byteOffset" : 1415844,
            "target" : 34963
        },
        {
            "buffer" : 0,
            "byteLength" : 419664,
            "byteOffset" : 1531044,
            "target" : 34962
        },
        {
            "buffer" : 0,
            "byteLength" : 419664,
            "byteOffset" : 1950708,
            "target" : 34962
        },
        {
            "buffer" : 0,
            "byteLength" : 13704,
            "byteOffset" : 2370372,
            "target" : 34963
        },
        {
            "buffer" : 0,
            "byteLength" : 54912,
            "byteOffset" : 2384076,
            "target" : 34962
        },
        {
            "buffer" : 0,
            "byteLength" : 54912,
            "byteOffset" : 2438988,
            "target" : 34962
        },
        {
            "buffer" : 0,
            "byteLength" : 36000,
            "byteOffset" : 2493900,
            "target" : 34963
        },
        {
            "buffer" : 0,
            "byteLength" : 136488,
            "byteOffset" : 2529900,
            "target" : 34962
        },
        {
            "buffer" : 0,
            "byteLength" : 136488,
            "byteOffset" : 2666388,
            "target" : 34962
        }
    ],
    "buffers" : [
        {
            "byteLength" : 2802876,
            "uri" : "npc1_01.bin"
        }
    ],
    "materials" : [
        {
            "name" : "lambert1",
            "pbrMetallicRoughness" : {
                "baseColorFactor" : [
                    0.4000000059604645,
                    0.4000000059604645,
                    0.4000000059604645,
                    1.0
                ],
                "metallicFactor" : 0.0
            }
        }
    ],
    "meshes" : [
        {
            "name" : "Untitled.002",
            "primitives" : [
                {
                    "attributes" : {
                        "NORMAL" : 2,
                        "POSITION" : 1
                    },
                    "indices" : 0,
                    "material" : 0
                }
            ]
        },
        {
            "name" : "Untitled.001",
            "primitives" : [
                {
                    "attributes" : {
                        "NORMAL" : 5,
                        "POSITION" : 4
                    },
                    "indices" : 3,
                    "material" : 0
                }
            ]
        },
        {
            "name" : "Untitled.003",
            "primitives" : [
                {
                    "attributes" : {
                        "NORMAL" : 8,
                        "POSITION" : 7
                    },
                    "indices" : 6,
                    "material" : 0
                }
            ]
        },
        {
            "name" : "Untitled",
            "primitives" : [
                {
                    "attributes" : {
                        "NORMAL" : 11,
                        "POSITION" : 10
                    },
                    "indices" : 9,
                    "material" : 0
                }
            ]
        },
        {
            "name" : "Untitled.004",
            "primitives" : [
                {
                    "attributes" : {
                        "NORMAL" : 14,
                        "POSITION" : 13
                    },
                    "indices" : 12,
                    "material" : 0
                }
            ]
        }
    ],
    "nodes" : [
        {
            "mesh" : 0,
            "name" : "body",
            "rotation" : [
                0.7071068286895752,
                0.0,
                -0.0,
                0.7071067094802856
            ]
        },
        {
            "name" : "Camera",
            "rotation" : [
                0.483536034822464,
                0.33687159419059753,
                -0.20870360732078552,
                0.7804827094078064
            ],
            "translation" : [
                7.481131553649902,
                5.34366512298584,
                6.5076398849487305
            ]
        },
        {
            "name" : "Camera.001",
            "rotation" : [
                0.48353609442710876,
                0.3368716537952423,
                -0.20870374143123627,
                0.7804827690124512
            ],
            "scale" : [
                0.9999999403953552,
                0.9999998807907104,
                1.0
            ],
            "translation" : [
                7.481131553649902,
                5.34366512298584,
                6.507639408111572
            ]
        },
        {
            "mesh" : 3,
            "name" : "horns",
            "rotation" : [
                0.7071068286895752,
                0.0,
                -0.0,
                0.7071067094802856
            ]
        },
        {
            "name" : "Lamp",
            "rotation" : [
                0.16907575726509094,
                0.7558802962303162,
                -0.27217137813568115,
                0.570947527885437
            ],
            "scale" : [
                1.0,
                1.0,
                0.9999999403953552
            ],
            "translation" : [
                4.076245307922363,
                5.903861999511719,
                -1.0054539442062378
            ]
        },
        {
            "name" : "Lamp.001",
            "rotation" : [
                0.16907577216625214,
                0.7558804154396057,
                -0.27217134833335876,
                0.5709474086761475
            ],
            "scale" : [
                1.0,
                1.0,
                0.9999998807907104
            ],
            "translation" : [
                4.076245307922363,
                5.903861999511719,
                -1.0054539442062378
            ]
        },
        {
            "mesh" : 2,
            "name" : "mask",
            "rotation" : [
                0.7071068286895752,
                0.0,
                -0.0,
                0.7071067094802856
            ],
            "scale" : [
                0.009999999776482582,
                0.009999999776482582,
                0.009999999776482582
            ],
            "translation" : [
                0.0,
                1.7404556274414062e-05,
                -5.662441253662109e-07
            ]
        },
        {
            "mesh" : 4,
            "name" : "skirt",
            "rotation" : [
                0.7071068286895752,
                0.0,
                -0.0,
                0.7071067094802856
            ],
            "scale" : [
                0.009999999776482582,
                0.009999999776482582,
                0.009999999776482582
            ],
            "translation" : [
                1.4901161193847656e-08,
                2.384185791015625e-07,
                7.35744833946228e-08
            ]
        },
        {
            "mesh" : 1,
            "name" : "top1",
            "rotation" : [
                0.7071068286895752,
                0.0,
                -0.0,
                0.7071067094802856
            ],
            "scale" : [
                0.009999999776482582,
                0.009999999776482582,
                0.009999999776482582
            ],
            "translation" : [
                0.0,
                -2.1457672119140625e-06,
                -2.682209014892578e-07
            ]
        }
    ],
    "scene" : 0,
    "scenes" : [
        {
            "name" : "Scene",
            "nodes" : [
                2,
                5,
                0,
                3,
                8,
                7,
                6,
                4,
                1
            ]
        }
    ]
}
