{
    "accessors" : [
        {
            "bufferView" : 0,
            "componentType" : 5123,
            "count" : 57600,
            "max" : [
                35072
            ],
            "min" : [
                0
            ],
            "type" : "SCALAR"
        },
        {
            "bufferView" : 1,
            "componentType" : 5126,
            "count" : 35073,
            "max" : [
                0.3827625513076782,
                0.3892516493797302,
                -2.1606483459472656
            ],
            "min" : [
                -0.38321372866630554,
                0.07795453816652298,
                -3.1613991260528564
            ],
            "type" : "VEC3"
        },
        {
            "bufferView" : 2,
            "componentType" : 5126,
            "count" : 35073,
            "max" : [
                0.9736319780349731,
                0.999664306640625,
                0.999786376953125
            ],
            "min" : [
                -0.9736319780349731,
                -0.99993896484375,
                -0.99981689453125
            ],
            "type" : "VEC3"
        },
        {
            "bufferView" : 3,
            "componentType" : 5126,
            "count" : 35073,
            "max" : [
                1.0,
                0.9999993443489075,
                0.9998854398727417,
                1.0
            ],
            "min" : [
                -0.9991702437400818,
                -0.9999992847442627,
                -0.8639048933982849,
                1.0
            ],
            "type" : "VEC4"
        },
        {
            "bufferView" : 4,
            "componentType" : 5126,
            "count" : 35073,
            "max" : [
                0.9980080723762512,
                0.9981444807490334
            ],
            "min" : [
                0.0019920417107641697,
                0.07042604684829712
            ],
            "type" : "VEC2"
        },
        {
            "bufferView" : 5,
            "componentType" : 5123,
            "count" : 18000,
            "max" : [
                11377
            ],
            "min" : [
                0
            ],
            "type" : "SCALAR"
        },
        {
            "bufferView" : 6,
            "componentType" : 5126,
            "count" : 11378,
            "max" : [
                0.44988110661506653,
                0.24231040477752686,
                -0.5375181436538696
            ],
            "min" : [
                -0.4569513201713562,
                -0.2726462185382843,
                -1.3098171949386597
            ],
            "type" : "VEC3"
        },
        {
            "bufferView" : 7,
            "componentType" : 5126,
            "count" : 11378,
            "max" : [
                0.999114990234375,
                0.99993896484375,
                0.9635303616523743
            ],
            "min" : [
                -0.999298095703125,
                -0.999969482421875,
                -0.9313638806343079
            ],
            "type" : "VEC3"
        },
        {
            "bufferView" : 8,
            "componentType" : 5126,
            "count" : 11378,
            "max" : [
                1.0,
                0.999999463558197,
                0.9693241715431213,
                1.0
            ],
            "min" : [
                -0.865263819694519,
                -0.9999991059303284,
                -0.9749128818511963,
                1.0
            ],
            "type" : "VEC4"
        },
        {
            "bufferView" : 9,
            "componentType" : 5126,
            "count" : 11378,
            "max" : [
                0.986163318157196,
                0.9980078798253089
            ],
            "min" : [
                0.0019683949649333954,
                0.0019919872283935547
            ],
            "type" : "VEC2"
        },
        {
            "bufferView" : 10,
            "componentType" : 5123,
            "count" : 18984,
            "max" : [
                11629
            ],
            "min" : [
                0
            ],
            "type" : "SCALAR"
        },
        {
            "bufferView" : 11,
            "componentType" : 5126,
            "count" : 11630,
            "max" : [
                0.35787877440452576,
                0.2148897349834442,
                -1.4299205541610718
            ],
            "min" : [
                -0.35824236273765564,
                -0.30137506127357483,
                -2.1710665225982666
            ],
            "type" : "VEC3"
        },
        {
            "bufferView" : 12,
            "componentType" : 5126,
            "count" : 11630,
            "max" : [
                0.9991455078125,
                0.999847412109375,
                0.99993896484375
            ],
            "min" : [
                -0.9989928603172302,
                -0.999847412109375,
                -0.99957275390625
            ],
            "type" : "VEC3"
        },
        {
            "bufferView" : 13,
            "componentType" : 5126,
            "count" : 11630,
            "max" : [
                1.0,
                0.9999999403953552,
                1.0,
                1.0
            ],
            "min" : [
                -0.9995039105415344,
                -0.9999999403953552,
                -0.9999998807907104,
                1.0
            ],
            "type" : "VEC4"
        },
        {
            "bufferView" : 14,
            "componentType" : 5126,
            "count" : 11630,
            "max" : [
                0.998008131980896,
                0.9980122500564903
            ],
            "min" : [
                0.0019920291379094124,
                0.004106640815734863
            ],
            "type" : "VEC2"
        },
        {
            "bufferView" : 15,
            "componentType" : 5123,
            "count" : 6852,
            "max" : [
                4575
            ],
            "min" : [
                0
            ],
            "type" : "SCALAR"
        },
        {
            "bufferView" : 16,
            "componentType" : 5126,
            "count" : 4576,
            "max" : [
                1.015036940574646,
                0.12491399794816971,
                -2.3214380741119385
            ],
            "min" : [
                -1.0150359869003296,
                -0.5995420217514038,
                -3.20556902885437
            ],
            "type" : "VEC3"
        },
        {
            "bufferView" : 17,
            "componentType" : 5126,
            "count" : 4576,
            "max" : [
                1.0,
                0.9984740614891052,
                0.9958800077438354
            ],
            "min" : [
                -0.9981688857078552,
                -0.9968260526657104,
                -0.9967039823532104
            ],
            "type" : "VEC3"
        },
        {
            "bufferView" : 18,
            "componentType" : 5126,
            "count" : 4576,
            "max" : [
                1.0,
                0.9999909996986389,
                0.9999848008155823,
                1.0
            ],
            "min" : [
                -0.8574692010879517,
                -0.9999911189079285,
                -1.0,
                -1.0
            ],
            "type" : "VEC4"
        },
        {
            "bufferView" : 19,
            "componentType" : 5126,
            "count" : 4576,
            "max" : [
                0.9321091175079346,
                0.9980079545639455
            ],
            "min" : [
                0.0018604970537126064,
                0.0019921064376831055
            ],
            "type" : "VEC2"
        },
        {
            "bufferView" : 20,
            "componentType" : 5123,
            "count" : 63330,
            "max" : [
                40544
            ],
            "min" : [
                0
            ],
            "type" : "SCALAR"
        },
        {
            "bufferView" : 21,
            "componentType" : 5126,
            "count" : 40545,
            "max" : [
                1.4185006618499756,
                0.35047081112861633,
                -0.0029516599606722593
            ],
            "min" : [
                -1.4189635515213013,
                -0.5759485363960266,
                -3.1963977813720703
            ],
            "type" : "VEC3"
        },
        {
            "bufferView" : 22,
            "componentType" : 5126,
            "count" : 40545,
            "max" : [
                0.99993896484375,
                0.99993896484375,
                0.99969482421875
            ],
            "min" : [
                -0.99993896484375,
                -0.999542236328125,
                -0.9981383681297302
            ],
            "type" : "VEC3"
        },
        {
            "bufferView" : 23,
            "componentType" : 5126,
            "count" : 40545,
            "max" : [
                1.0,
                0.9999999403953552,
                1.0,
                1.0
            ],
            "min" : [
                -0.8622141480445862,
                -0.9999999403953552,
                -0.9999960660934448,
                -1.0
            ],
            "type" : "VEC4"
        },
        {
            "bufferView" : 24,
            "componentType" : 5126,
            "count" : 40545,
            "max" : [
                0.9841328263282776,
                0.9980079571250826
            ],
            "min" : [
                0.0019643635023385286,
                0.0019919276237487793
            ],
            "type" : "VEC2"
        }
    ],
    "asset" : {
        "generator" : "Khronos Blender glTF 2.0 exporter",
        "version" : "2.0"
    },
    "bufferViews" : [
        {
            "buffer" : 0,
            "byteLength" : 115200,
            "byteOffset" : 0,
            "target" : 34963
        },
        {
            "buffer" : 0,
            "byteLength" : 420876,
            "byteOffset" : 115200,
            "target" : 34962
        },
        {
            "buffer" : 0,
            "byteLength" : 420876,
            "byteOffset" : 536076,
            "target" : 34962
        },
        {
            "buffer" : 0,
            "byteLength" : 561168,
            "byteOffset" : 956952,
            "target" : 34962
        },
        {
            "buffer" : 0,
            "byteLength" : 280584,
            "byteOffset" : 1518120,
            "target" : 34962
        },
        {
            "buffer" : 0,
            "byteLength" : 36000,
            "byteOffset" : 1798704,
            "target" : 34963
        },
        {
            "buffer" : 0,
            "byteLength" : 136536,
            "byteOffset" : 1834704,
            "target" : 34962
        },
        {
            "buffer" : 0,
            "byteLength" : 136536,
            "byteOffset" : 1971240,
            "target" : 34962
        },
        {
            "buffer" : 0,
            "byteLength" : 182048,
            "byteOffset" : 2107776,
            "target" : 34962
        },
        {
            "buffer" : 0,
            "byteLength" : 91024,
            "byteOffset" : 2289824,
            "target" : 34962
        },
        {
            "buffer" : 0,
            "byteLength" : 37968,
            "byteOffset" : 2380848,
            "target" : 34963
        },
        {
            "buffer" : 0,
            "byteLength" : 139560,
            "byteOffset" : 2418816,
            "target" : 34962
        },
        {
            "buffer" : 0,
            "byteLength" : 139560,
            "byteOffset" : 2558376,
            "target" : 34962
        },
        {
            "buffer" : 0,
            "byteLength" : 186080,
            "byteOffset" : 2697936,
            "target" : 34962
        },
        {
            "buffer" : 0,
            "byteLength" : 93040,
            "byteOffset" : 2884016,
            "target" : 34962
        },
        {
            "buffer" : 0,
            "byteLength" : 13704,
            "byteOffset" : 2977056,
            "target" : 34963
        },
        {
            "buffer" : 0,
            "byteLength" : 54912,
            "byteOffset" : 2990760,
            "target" : 34962
        },
        {
            "buffer" : 0,
            "byteLength" : 54912,
            "byteOffset" : 3045672,
            "target" : 34962
        },
        {
            "buffer" : 0,
            "byteLength" : 73216,
            "byteOffset" : 3100584,
            "target" : 34962
        },
        {
            "buffer" : 0,
            "byteLength" : 36608,
            "byteOffset" : 3173800,
            "target" : 34962
        },
        {
            "buffer" : 0,
            "byteLength" : 126660,
            "byteOffset" : 3210408,
            "target" : 34963
        },
        {
            "buffer" : 0,
            "byteLength" : 486540,
            "byteOffset" : 3337068,
            "target" : 34962
        },
        {
            "buffer" : 0,
            "byteLength" : 486540,
            "byteOffset" : 3823608,
            "target" : 34962
        },
        {
            "buffer" : 0,
            "byteLength" : 648720,
            "byteOffset" : 4310148,
            "target" : 34962
        },
        {
            "buffer" : 0,
            "byteLength" : 324360,
            "byteOffset" : 4958868,
            "target" : 34962
        }
    ],
    "buffers" : [
        {
            "byteLength" : 5283228,
            "uri" : "npc1_01.bin"
        }
    ],
    "materials" : [
        {
            "name" : "Body",
            "pbrMetallicRoughness" : {}
        },
        {
            "name" : "Horns",
            "pbrMetallicRoughness" : {}
        },
        {
            "name" : "lambert2",
            "pbrMetallicRoughness" : {
                "baseColorFactor" : [
                    0.2993548437856859,
                    0.2993548437856859,
                    0.2993548437856859,
                    1.0
                ],
                "metallicFactor" : 0.0
            }
        },
        {
            "name" : "Mask",
            "pbrMetallicRoughness" : {}
        },
        {
            "name" : "Skirt",
            "pbrMetallicRoughness" : {}
        }
    ],
    "meshes" : [
        {
            "name" : "Untitled",
            "primitives" : [
                {
                    "attributes" : {
                        "NORMAL" : 2,
                        "POSITION" : 1,
                        "TANGENT" : 3,
                        "TEXCOORD_0" : 4
                    },
                    "indices" : 0,
                    "material" : 3
                },
                {
                    "attributes" : {
                        "NORMAL" : 7,
                        "POSITION" : 6,
                        "TANGENT" : 8,
                        "TEXCOORD_0" : 9
                    },
                    "indices" : 5,
                    "material" : 4
                },
                {
                    "attributes" : {
                        "NORMAL" : 12,
                        "POSITION" : 11,
                        "TANGENT" : 13,
                        "TEXCOORD_0" : 14
                    },
                    "indices" : 10
                },
                {
                    "attributes" : {
                        "NORMAL" : 17,
                        "POSITION" : 16,
                        "TANGENT" : 18,
                        "TEXCOORD_0" : 19
                    },
                    "indices" : 15,
                    "material" : 1
                },
                {
                    "attributes" : {
                        "NORMAL" : 22,
                        "POSITION" : 21,
                        "TANGENT" : 23,
                        "TEXCOORD_0" : 24
                    },
                    "indices" : 20,
                    "material" : 0
                }
            ]
        }
    ],
    "nodes" : [
        {
            "name" : "Camera",
            "rotation" : [
                0.483536034822464,
                0.33687159419059753,
                -0.20870360732078552,
                0.7804827094078064
            ],
            "translation" : [
                7.481131553649902,
                5.34366512298584,
                6.5076398849487305
            ]
        },
        {
            "name" : "Lamp",
            "rotation" : [
                0.16907575726509094,
                0.7558802962303162,
                -0.27217137813568115,
                0.570947527885437
            ],
            "scale" : [
                1.0,
                1.0,
                0.9999999403953552
            ],
            "translation" : [
                4.076245307922363,
                5.903861999511719,
                -1.0054539442062378
            ]
        },
        {
            "children" : [
                8
            ],
            "name" : "npczbrush1_rigtest02:Group57351",
            "rotation" : [
                0.7071068286895752,
                0.0,
                -0.0,
                0.7071067094802856
            ],
            "scale" : [
                0.009999999776482582,
                0.009999999776482582,
                0.009999999776482582
            ],
            "translation" : [
                0.0,
                -4.0978193283081055e-08,
                -1.3387762010097504e-09
            ]
        },
        {
            "children" : [
                9
            ],
            "name" : "npczbrush1_rigtest02:Group57352",
            "rotation" : [
                0.7071068286895752,
                0.0,
                -0.0,
                0.7071067094802856
            ],
            "scale" : [
                0.009999999776482582,
                0.009999999776482582,
                0.009999999776482582
            ],
            "translation" : [
                -7.639755494892597e-11,
                1.6763806343078613e-08,
                1.4551915228366852e-10
            ]
        },
        {
            "children" : [
                10
            ],
            "name" : "npczbrush1_rigtest02:Group57353",
            "rotation" : [
                0.7071068286895752,
                0.0,
                -0.0,
                0.7071067094802856
            ],
            "scale" : [
                0.009999999776482582,
                0.009999999776482582,
                0.009999999776482582
            ],
            "translation" : [
                5.229594535194337e-12,
                -9.872019290924072e-08,
                -5.587935447692871e-09
            ]
        },
        {
            "mesh" : 0,
            "name" : "npczbrush1_rigtest02:Group57354",
            "rotation" : [
                0.7071068286895752,
                0.0,
                -0.0,
                0.7071067094802856
            ],
            "translation" : [
                0.0002291303826496005,
                -0.004210707265883684,
                0.10409373790025711
            ]
        },
        {
            "children" : [
                11
            ],
            "name" : "npczbrush1_rigtest02:Group9155",
            "rotation" : [
                0.7071068286895752,
                0.0,
                -0.0,
                0.7071067094802856
            ],
            "scale" : [
                0.009999999776482582,
                0.009999999776482582,
                0.009999999776482582
            ]
        },
        {
            "children" : [
                12
            ],
            "name" : "npczbrush1_rigtest02:Group9156",
            "rotation" : [
                0.7071068286895752,
                0.0,
                -0.0,
                0.7071067094802856
            ],
            "scale" : [
                0.009999999776482582,
                0.009999999776482582,
                0.009999999776482582
            ]
        },
        {
            "name" : "npczbrush1_rigtest02:transform1"
        },
        {
            "name" : "npczbrush1_rigtest02:transform2"
        },
        {
            "name" : "npczbrush1_rigtest02:transform3"
        },
        {
            "name" : "npczbrush1_rigtest02:transform4"
        },
        {
            "name" : "npczbrush1_rigtest02:transform5"
        }
    ],
    "scene" : 0,
    "scenes" : [
        {
            "name" : "Scene",
            "nodes" : [
                5,
                4,
                3,
                2,
                7,
                6,
                1,
                0
            ]
        }
    ]
}
