{
    "accessors" : [
        {
            "bufferView" : 0,
            "componentType" : 5123,
            "count" : 4992,
            "max" : [
                1068
            ],
            "min" : [
                0
            ],
            "type" : "SCALAR"
        },
        {
            "bufferView" : 1,
            "componentType" : 5126,
            "count" : 1069,
            "max" : [
                1.476165771484375,
                3.2222824096679688,
                0.5899165868759155
            ],
            "min" : [
                -1.476165771484375,
                0.003414345905184746,
                -1.406520962715149
            ],
            "type" : "VEC3"
        },
        {
            "bufferView" : 2,
            "componentType" : 5126,
            "count" : 1069,
            "max" : [
                0.999908447265625,
                1.0,
                0.999969482421875
            ],
            "min" : [
                -0.999908447265625,
                -0.999969482421875,
                -0.999969482421875
            ],
            "type" : "VEC3"
        },
        {
            "bufferView" : 3,
            "componentType" : 5126,
            "count" : 1069,
            "max" : [
                0.9999921917915344,
                0.9999337792396545,
                0.9999632239341736,
                1.0
            ],
            "min" : [
                -0.9999921917915344,
                -0.9931228756904602,
                -0.9997525811195374,
                -1.0
            ],
            "type" : "VEC4"
        },
        {
            "bufferView" : 4,
            "componentType" : 5126,
            "count" : 1069,
            "max" : [
                0.9958521127700806,
                0.9997903783078073
            ],
            "min" : [
                0.019561707973480225,
                0.026702940464019775
            ],
            "type" : "VEC2"
        },
        {
            "bufferView" : 5,
            "componentType" : 5123,
            "count" : 1069,
            "max" : [
                20,
                20,
                20,
                20
            ],
            "min" : [
                0,
                0,
                0,
                0
            ],
            "type" : "VEC4"
        },
        {
            "bufferView" : 6,
            "componentType" : 5126,
            "count" : 1069,
            "max" : [
                0.9999921917915344,
                0.9742363095283508,
                0.8912994265556335,
                0.8508355021476746
            ],
            "min" : [
                2.8070062398910522e-05,
                0.0,
                0.0,
                0.0
            ],
            "type" : "VEC4"
        },
        {
            "bufferView" : 7,
            "componentType" : 5123,
            "count" : 1069,
            "max" : [
                20,
                20,
                16,
                0
            ],
            "min" : [
                0,
                0,
                0,
                0
            ],
            "type" : "VEC4"
        },
        {
            "bufferView" : 8,
            "componentType" : 5126,
            "count" : 1069,
            "max" : [
                0.4731852114200592,
                0.3442624807357788,
                0.1387617141008377,
                0.0
            ],
            "min" : [
                0.0,
                0.0,
                0.0,
                0.0
            ],
            "type" : "VEC4"
        },
        {
            "bufferView" : 9,
            "componentType" : 5126,
            "count" : 21,
            "max" : [
                1.0,
                0.9982745051383972,
                1.0000014305114746,
                0.0,
                0.34566670656204224,
                1.0000001192092896,
                0.9982743263244629,
                0.0,
                1.0000001192092896,
                0.9916006326675415,
                1.0,
                0.0,
                0.2713557183742523,
                0.7636334300041199,
                0.3003530204296112,
                1.0
            ],
            "min" : [
                -1.0000015497207642,
                -0.9982745051383972,
                -0.9999994039535522,
                0.0,
                -0.34566688537597656,
                -0.9556429386138916,
                -0.22330105304718018,
                0.0,
                -1.0000001192092896,
                -0.3456668257713318,
                -7.887342690082733e-07,
                0.0,
                -0.2713562250137329,
                -2.0970945358276367,
                -1.8731026649475098,
                1.0
            ],
            "type" : "MAT4"
        }
    ],
    "asset" : {
        "generator" : "Khronos Blender glTF 2.0 exporter",
        "version" : "2.0"
    },
    "bufferViews" : [
        {
            "buffer" : 0,
            "byteLength" : 9984,
            "byteOffset" : 0,
            "target" : 34963
        },
        {
            "buffer" : 0,
            "byteLength" : 12828,
            "byteOffset" : 9984,
            "target" : 34962
        },
        {
            "buffer" : 0,
            "byteLength" : 12828,
            "byteOffset" : 22812,
            "target" : 34962
        },
        {
            "buffer" : 0,
            "byteLength" : 17104,
            "byteOffset" : 35640,
            "target" : 34962
        },
        {
            "buffer" : 0,
            "byteLength" : 8552,
            "byteOffset" : 52744,
            "target" : 34962
        },
        {
            "buffer" : 0,
            "byteLength" : 8552,
            "byteOffset" : 61296,
            "target" : 34962
        },
        {
            "buffer" : 0,
            "byteLength" : 17104,
            "byteOffset" : 69848,
            "target" : 34962
        },
        {
            "buffer" : 0,
            "byteLength" : 8552,
            "byteOffset" : 86952,
            "target" : 34962
        },
        {
            "buffer" : 0,
            "byteLength" : 17104,
            "byteOffset" : 95504,
            "target" : 34962
        },
        {
            "buffer" : 0,
            "byteLength" : 1344,
            "byteOffset" : 112608
        }
    ],
    "buffers" : [
        {
            "byteLength" : 113952,
            "uri" : "Amilie_2.bin"
        }
    ],
    "meshes" : [
        {
            "name" : "Plane.001",
            "primitives" : [
                {
                    "attributes" : {
                        "JOINTS_0" : 5,
                        "JOINTS_1" : 7,
                        "NORMAL" : 2,
                        "POSITION" : 1,
                        "TANGENT" : 3,
                        "TEXCOORD_0" : 4,
                        "WEIGHTS_0" : 6,
                        "WEIGHTS_1" : 8
                    },
                    "indices" : 0
                }
            ]
        }
    ],
    "nodes" : [
        {
            "mesh" : 0,
            "name" : "Amilie",
            "skin" : 0,
            "translation" : [
                0.0,
                -0.8009374141693115,
                -0.0
            ]
        },
        {
            "children" : [
                0,
                2
            ],
            "name" : "Armature",
            "translation" : [
                0.0,
                0.8009374141693115,
                -0.0
            ]
        },
        {
            "children" : [
                9,
                3,
                6
            ],
            "name" : "Armature_Hips",
            "rotation" : [
                0.11236211657524109,
                1.1845440184288236e-07,
                1.3394607201178133e-08,
                0.9936673641204834
            ],
            "translation" : [
                0.0,
                0.0,
                -0.06565061956644058
            ]
        },
        {
            "children" : [
                4
            ],
            "name" : "Armature_UpperLeg.L",
            "rotation" : [
                0.6842852830886841,
                -0.15074039995670319,
                -0.6824853420257568,
                0.20795373618602753
            ],
            "scale" : [
                1.0,
                1.0,
                1.0000004768371582
            ],
            "translation" : [
                0.23634225130081177,
                0.0016515246825292706,
                0.007209139410406351
            ]
        },
        {
            "children" : [
                5
            ],
            "name" : "Armature_LowerLeg.L",
            "rotation" : [
                0.040454987436532974,
                0.0013122428208589554,
                -0.3148079216480255,
                0.9482918977737427
            ],
            "scale" : [
                1.0,
                1.0000001192092896,
                1.0
            ],
            "translation" : [
                7.450580596923828e-09,
                0.45148390531539917,
                2.0942829692671694e-08
            ]
        },
        {
            "name" : "Armature_Foot.L",
            "rotation" : [
                0.5525842905044556,
                -0.44119247794151306,
                0.5525841116905212,
                0.4411923289299011
            ],
            "scale" : [
                1.0,
                0.9999999403953552,
                0.9999999403953552
            ],
            "translation" : [
                -4.8151065357160405e-09,
                0.32920247316360474,
                -2.8775190230589942e-08
            ]
        },
        {
            "children" : [
                7
            ],
            "name" : "Armature_UpperLeg.R",
            "rotation" : [
                0.6842854619026184,
                0.1507401019334793,
                0.6824849247932434,
                0.20795464515686035
            ],
            "scale" : [
                0.9999998807907104,
                0.9999998211860657,
                0.9999986886978149
            ],
            "translation" : [
                -0.23634225130081177,
                0.001651525148190558,
                0.007209022529423237
            ]
        },
        {
            "children" : [
                8
            ],
            "name" : "Armature_LowerLeg.R",
            "rotation" : [
                0.04045523703098297,
                -0.0013123720418661833,
                0.3148079514503479,
                0.9482919573783875
            ],
            "scale" : [
                1.0,
                1.0,
                0.9999998807907104
            ],
            "translation" : [
                -1.4435499906539917e-08,
                0.45148393511772156,
                7.367313870076941e-09
            ]
        },
        {
            "name" : "Armature_Foot.R",
            "rotation" : [
                0.5525841116905212,
                0.44119277596473694,
                -0.5525842308998108,
                0.4411922097206116
            ],
            "scale" : [
                0.9999998807907104,
                0.9999997615814209,
                0.9999999403953552
            ],
            "translation" : [
                -2.9054014305529563e-08,
                0.3292025327682495,
                2.8842894295166843e-08
            ]
        },
        {
            "children" : [
                10
            ],
            "name" : "Armature_LowerSpine",
            "rotation" : [
                -0.10890408605337143,
                -1.1850028869275775e-07,
                -1.298238583302691e-08,
                0.9940523505210876
            ],
            "translation" : [
                1.3322676295501878e-15,
                0.3733987808227539,
                -1.862645149230957e-09
            ]
        },
        {
            "children" : [
                11,
                21,
                16
            ],
            "name" : "Armature_Chest",
            "rotation" : [
                -0.02922201342880726,
                -1.4256694444241512e-14,
                1.3603282429059467e-15,
                0.9995729327201843
            ],
            "translation" : [
                -5.293955920339377e-23,
                0.3639790713787079,
                1.3969838619232178e-09
            ]
        },
        {
            "children" : [
                12
            ],
            "name" : "Armature_ShoulderConnector.L",
            "rotation" : [
                -0.5641613006591797,
                -0.39668595790863037,
                -0.5853548645973206,
                0.42628875374794006
            ],
            "scale" : [
                0.9999999403953552,
                0.9999999403953552,
                1.0
            ],
            "translation" : [
                -4.6116104855292893e-23,
                0.39367008209228516,
                -5.605217623383396e-09
            ]
        },
        {
            "children" : [
                13
            ],
            "name" : "Armature_Shoulder.L",
            "rotation" : [
                0.13427479565143585,
                -8.135720008795033e-08,
                -2.1574328101792162e-08,
                0.9909441471099854
            ],
            "scale" : [
                1.0,
                0.9999999403953552,
                1.0
            ],
            "translation" : [
                2.930988785010413e-14,
                0.18108177185058594,
                -2.60770320892334e-08
            ]
        },
        {
            "children" : [
                14
            ],
            "name" : "Armature_UpperArm.L",
            "rotation" : [
                -0.12007824331521988,
                2.1379314318892284e-07,
                2.6375333916917043e-08,
                0.9927645325660706
            ],
            "translation" : [
                5.240252676230739e-14,
                0.1449246108531952,
                1.1920928955078125e-07
            ]
        },
        {
            "children" : [
                15
            ],
            "name" : "Armature_LowerArm.L",
            "rotation" : [
                -0.02242622710764408,
                9.703550185591325e-10,
                4.080348003920875e-10,
                0.9997485876083374
            ],
            "scale" : [
                1.0,
                1.0,
                0.9999999403953552
            ],
            "translation" : [
                3.774758283725532e-15,
                0.44915419816970825,
                7.450580596923828e-08
            ]
        },
        {
            "name" : "Armature_Hand.L",
            "rotation" : [
                0.015411955304443836,
                -1.558743178975419e-08,
                -9.964296748821155e-11,
                0.9998812675476074
            ],
            "translation" : [
                -8.43769498715119e-15,
                0.49338123202323914,
                -5.773159728050814e-15
            ]
        },
        {
            "children" : [
                17
            ],
            "name" : "Armature_ShoulderConnector.R",
            "rotation" : [
                -0.5641613006591797,
                0.39668595790863037,
                0.5853548645973206,
                0.42628875374794006
            ],
            "scale" : [
                0.9999999403953552,
                0.9999999403953552,
                1.0
            ],
            "translation" : [
                -4.6116104855292893e-23,
                0.39367008209228516,
                -5.605217623383396e-09
            ]
        },
        {
            "children" : [
                18
            ],
            "name" : "Armature_Shoulder.R",
            "rotation" : [
                0.13427479565143585,
                8.135720008795033e-08,
                2.1574328101792162e-08,
                0.9909441471099854
            ],
            "scale" : [
                1.0,
                0.9999999403953552,
                1.0
            ],
            "translation" : [
                -2.930988785010413e-14,
                0.18108177185058594,
                -2.60770320892334e-08
            ]
        },
        {
            "children" : [
                19
            ],
            "name" : "Armature_UpperArm.R",
            "rotation" : [
                -0.12007824331521988,
                -2.1379314318892284e-07,
                -2.6375333916917043e-08,
                0.9927645325660706
            ],
            "translation" : [
                -5.240252676230739e-14,
                0.1449246108531952,
                1.1920928955078125e-07
            ]
        },
        {
            "children" : [
                20
            ],
            "name" : "Armature_LowerArm.R",
            "rotation" : [
                -0.02242622710764408,
                -9.703550185591325e-10,
                -4.080348003920875e-10,
                0.9997485876083374
            ],
            "scale" : [
                1.0,
                1.0,
                0.9999999403953552
            ],
            "translation" : [
                -3.774758283725532e-15,
                0.44915419816970825,
                7.450580596923828e-08
            ]
        },
        {
            "name" : "Armature_Hand.R",
            "rotation" : [
                0.015411955304443836,
                1.558743178975419e-08,
                9.964296748821155e-11,
                0.9998812675476074
            ],
            "translation" : [
                8.43769498715119e-15,
                0.49338123202323914,
                -5.773159728050814e-15
            ]
        },
        {
            "children" : [
                22
            ],
            "name" : "Armature_Neck",
            "rotation" : [
                0.025743955746293068,
                1.1916979048010035e-07,
                3.0689184526977442e-09,
                0.9996686577796936
            ],
            "translation" : [
                -4.6116104855292893e-23,
                0.39367008209228516,
                -5.605217623383396e-09
            ]
        },
        {
            "name" : "Armature_Head",
            "rotation" : [
                3.1554424924094704e-30,
                -1.1920927533992653e-07,
                4.440886804544706e-16,
                1.0
            ],
            "translation" : [
                -1.0587911840678754e-22,
                0.17506814002990723,
                7.113753267956038e-23
            ]
        }
    ],
    "scene" : 0,
    "scenes" : [
        {
            "name" : "Scene",
            "nodes" : [
                1
            ]
        }
    ],
    "skins" : [
        {
            "inverseBindMatrices" : 9,
            "joints" : [
                2,
                3,
                4,
                5,
                6,
                7,
                8,
                9,
                10,
                11,
                12,
                13,
                14,
                15,
                16,
                17,
                18,
                19,
                20,
                21,
                22
            ],
            "skeleton" : 1
        }
    ]
}
