{
    "accessors" : [
        {
            "bufferView" : 0,
            "componentType" : 5123,
            "count" : 708,
            "max" : [
                117
            ],
            "min" : [
                0
            ],
            "type" : "SCALAR"
        },
        {
            "bufferView" : 1,
            "componentType" : 5126,
            "count" : 118,
            "max" : [
                0.4492643475532532,
                2.055722236633301,
                0.17087188363075256
            ],
            "min" : [
                -0.4492643475532532,
                0.9889506101608276,
                -0.7235047817230225
            ],
            "type" : "VEC3"
        },
        {
            "bufferView" : 2,
            "componentType" : 5126,
            "count" : 118,
            "max" : [
                0.999908447265625,
                0.9911190867424011,
                0.999755859375
            ],
            "min" : [
                -0.999908447265625,
                -0.9748832583427429,
                -0.999969482421875
            ],
            "type" : "VEC3"
        },
        {
            "bufferView" : 3,
            "componentType" : 5123,
            "count" : 4326,
            "max" : [
                712
            ],
            "min" : [
                0
            ],
            "type" : "SCALAR"
        },
        {
            "bufferView" : 4,
            "componentType" : 5126,
            "count" : 713,
            "max" : [
                1.476165771484375,
                3.2222824096679688,
                0.5797011852264404
            ],
            "min" : [
                -1.476165771484375,
                0.003414345905184746,
                -1.406520962715149
            ],
            "type" : "VEC3"
        },
        {
            "bufferView" : 5,
            "componentType" : 5126,
            "count" : 713,
            "max" : [
                1.0,
                0.9983214735984802,
                0.999908447265625
            ],
            "min" : [
                -1.0,
                -0.999969482421875,
                -0.999969482421875
            ],
            "type" : "VEC3"
        }
    ],
    "asset" : {
        "generator" : "Khronos Blender glTF 2.0 exporter",
        "version" : "2.0"
    },
    "bufferViews" : [
        {
            "buffer" : 0,
            "byteLength" : 1416,
            "byteOffset" : 0,
            "target" : 34963
        },
        {
            "buffer" : 0,
            "byteLength" : 1416,
            "byteOffset" : 1416,
            "target" : 34962
        },
        {
            "buffer" : 0,
            "byteLength" : 1416,
            "byteOffset" : 2832,
            "target" : 34962
        },
        {
            "buffer" : 0,
            "byteLength" : 8652,
            "byteOffset" : 4248,
            "target" : 34963
        },
        {
            "buffer" : 0,
            "byteLength" : 8556,
            "byteOffset" : 12900,
            "target" : 34962
        },
        {
            "buffer" : 0,
            "byteLength" : 8556,
            "byteOffset" : 21456,
            "target" : 34962
        }
    ],
    "buffers" : [
        {
            "byteLength" : 30012,
            "uri" : "Amilie_1.bin"
        }
    ],
    "meshes" : [
        {
            "name" : "Cube.001",
            "primitives" : [
                {
                    "attributes" : {
                        "NORMAL" : 2,
                        "POSITION" : 1
                    },
                    "indices" : 0
                }
            ]
        },
        {
            "name" : "Plane.001",
            "primitives" : [
                {
                    "attributes" : {
                        "NORMAL" : 5,
                        "POSITION" : 4
                    },
                    "indices" : 3
                }
            ]
        }
    ],
    "nodes" : [
        {
            "mesh" : 1,
            "name" : "Amilie"
        },
        {
            "mesh" : 0,
            "name" : "Pack"
        }
    ],
    "scene" : 0,
    "scenes" : [
        {
            "name" : "Scene",
            "nodes" : [
                1,
                0
            ]
        }
    ]
}
